<svg xmlns="http://www.w3.org/2000/svg" viewBox="0 0 228.38 50.4"><g id="Layer_2" data-name="Layer 2"><g id="Layer_1-2" data-name="Layer 1">
<path d="M21.74,50.4a20.72,20.72,0,0,1-8.49-1.76,20.4,20.4,0,0,1-6.91-5,23.92,23.92,0,0,1-4.65-8A30.49,30.49,0,0,1,0,25.2,30.49,30.49,0,0,1,1.69,14.76a24.36,24.36,0,0,1,4.61-8,20,20,0,0,1,6.91-5A21,21,0,0,1,21.74,0a21.23,21.23,0,0,1,8.57,1.76,20.32,20.32,0,0,1,7,5,24.07,24.07,0,0,1,4.64,8A30.49,30.49,0,0,1,43.63,25.2,29.77,29.77,0,0,1,41.9,35.64a24.32,24.32,0,0,1-4.68,8,20.32,20.32,0,0,1-6.94,5A21,21,0,0,1,21.74,50.4Zm0-8.57A11.45,11.45,0,0,0,31,37.4Q34.63,33,34.63,25.2T31,13a11.45,11.45,0,0,0-9.26-4.43A11.33,11.33,0,0,0,12.53,13q-3.6,4.42-3.6,12.2t3.6,12.2A11.33,11.33,0,0,0,21.74,41.83Z"/>
<path d="M53.35,49.68V.72H82.51V8.86H61.92v10H80.57V27H61.92V45.5c0,.87,0,1.66.07,2.38a6.08,6.08,0,0,0,.36,1.8Z"/>
<path d="M90.86,49.68V.72H120V8.86H99.43v10h18.65V27H99.43V45.5c0,.87,0,1.66.07,2.38a6.08,6.08,0,0,0,.36,1.8Z"/>
<path d="M128.37,49.68V.72h8.57v49Z"/>
<path d="M180.5,29.38h9q-.36,9.5-6.12,15.26t-15,5.76a21.94,21.94,0,0,1-8.25-1.58,19.3,19.3,0,0,1-6.91-4.76,23.07,23.07,0,0,1-4.75-7.88,31.14,31.14,0,0,1-1.77-11,32.39,32.39,0,0,1,1.7-11A22.81,22.81,0,0,1,153,6.34a18.69,18.69,0,0,1,6.88-4.76A22.78,22.78,0,0,1,168.41,0q9,0,14.65,5.54t6.44,16h-9.65q-.57-6.84-3.81-9.9a11.21,11.21,0,0,0-8-3.06,11,11,0,0,0-9,4.14q-3.39,4.14-3.39,12.49t3.42,12.49a11.07,11.07,0,0,0,9,4.14,10.16,10.16,0,0,0,7.52-2.77Q178.34,36.28,180.5,29.38Z"/>
<path d="M198.43,49.68V.72h29.95V8.86H207v10h20.23V27H207V41.54h21.38v8.14Z"/>
</g></g></svg>